<svg id="Capa_1" enable-background="new 0 0 512 512" height="512" viewBox="0 0 512 512" width="512" xmlns="http://www.w3.org/2000/svg"><g><g><g><g><g><g><g><circle cx="256" cy="256" fill="#7584f2" r="256"/></g></g></g></g></g></g><path d="m512 256c0-2.676-.041-5.343-.123-7.999l-112.907-112.907-47.098 37.76-93.824-93.824-46.587 48.776-33.563-33.563-100.898 119.841 43.125 184.787 112.033 112.033c7.85.725 15.803 1.096 23.842 1.096 141.385 0 256-114.615 256-256z" fill="#4253ce"/><g><path d="m302.281 359.134c-89.276 0-161.649-72.373-161.649-161.649 0-39.255 13.997-75.238 37.266-103.242-66.841 28.258-113.745 94.436-113.745 171.569.001 102.829 83.36 186.188 186.189 186.188 94.71 0 172.901-70.717 184.658-162.228-29.205 41.921-77.754 69.362-132.719 69.362z" fill="#ffce00"/></g><g><path d="m302.281 359.133c-43.786 0-83.498-17.417-112.608-45.691l-76.205 78.574c34.02 36.878 82.745 59.984 136.874 59.984 94.71 0 172.901-70.717 184.658-162.229-29.205 41.922-77.754 69.362-132.719 69.362z" fill="#fdba12"/></g><g><circle cx="231.924" cy="104.007" fill="#fff" r="36.153"/></g><g><path d="m268.077 104.006c0-19.933-16.133-36.096-36.053-36.151v72.301c19.921-.053 36.053-16.216 36.053-36.15z" fill="#e9edf5"/></g><g><circle cx="299.847" cy="262" fill="#fff" r="23.931"/></g><g><path d="m323.778 262c0-13.133-10.58-23.79-23.681-23.925v47.85c13.101-.135 23.681-10.792 23.681-23.925z" fill="#e9edf5"/></g><g><circle cx="372.666" cy="159.882" fill="#fff" r="36.153"/></g><g><path d="m372.666 123.729c-.094 0-.186.006-.28.007v72.292c.094.001.186.007.28.007 19.967 0 36.153-16.186 36.153-36.153s-16.186-36.153-36.153-36.153z" fill="#e9edf5"/></g></g></svg>